<svg width="58" height="53" viewBox="0 0 58 53" fill="none" xmlns="http://www.w3.org/2000/svg">
<path d="M42.195 23.1992C39.9528 23.7029 37.8317 24.6433 35.9529 25.9667C34.074 27.2901 32.4743 28.9707 31.245 30.9124C30.0156 32.854 29.1808 35.0188 28.788 37.2832C28.3953 39.5475 28.4525 41.867 28.9562 44.1093L57.3795 47.1126L42.195 23.1992Z" fill="#AEA7DD"/>
<circle cx="26" cy="26" r="5" fill="#847BBE"/>
<path d="M53 26.5C53 20.8963 51.2236 15.4367 47.9261 10.906C44.6285 6.37515 39.9796 3.00631 34.6472 1.28348C29.3149 -0.439347 23.5737 -0.427467 18.2485 1.31741C12.9233 3.06229 8.28837 6.45035 5.0096 10.9948C1.73083 15.5392 -0.0229638 21.006 0.000226928 26.6097C0.0234176 32.2134 1.8224 37.6655 5.13867 42.1826C8.45494 46.6997 13.1178 50.0493 18.4572 51.75C23.7966 53.4508 29.5378 53.4151 34.8557 51.6482L33.7627 48.3587C29.1404 49.8945 24.1502 49.9254 19.5093 48.4472C14.8683 46.9689 10.8153 44.0575 7.93286 40.1312C5.05037 36.205 3.48671 31.466 3.46656 26.5953C3.4464 21.7246 4.97078 16.9729 7.82067 13.0229C10.6706 9.07296 14.6992 6.12809 19.3278 4.61145C23.9564 3.09481 28.9467 3.08448 33.5815 4.58195C38.2163 6.07942 42.2572 9.0076 45.1234 12.9457C47.9896 16.8839 49.5336 21.6293 49.5336 26.5H53Z" fill="#847BBE"/>
<path d="M42.553 19.795C39.7278 21.7782 33.6166 25.1947 31.6333 22.3696C29.6501 19.5444 34.7005 14.6166 37.5257 12.6333C40.3509 10.6501 41.9272 10.9261 43.9104 13.7513C45.8936 16.5765 45.3782 17.8117 42.553 19.795Z" fill="#AEA7DD"/>
<path d="M37.4209 12.9447C35.9133 16.0498 32.2282 22.0031 29.1231 20.4955C26.0179 18.9879 28.0419 12.2282 29.5495 9.12307C31.0571 6.01792 32.5693 5.49421 35.6744 7.0018C38.7796 8.50938 38.9284 9.83954 37.4209 12.9447Z" fill="#847BBE"/>
<path d="M30.3439 10.0869C30.1421 13.5328 29.0214 20.444 25.5755 20.2422C22.1296 20.0405 21.4071 13.0214 21.6088 9.5755C21.8106 6.12962 23.0063 5.06614 26.4522 5.26788C29.8981 5.46962 30.5456 6.64102 30.3439 10.0869Z" fill="#AEA7DD"/>
<path d="M21.8751 9.10779C23.4062 12.2014 25.8549 18.7607 22.7612 20.2918C19.6676 21.8229 15.5641 16.0826 14.033 12.989C12.5019 9.89534 13.0141 8.37928 16.1078 6.84819C19.2014 5.31711 20.344 6.01416 21.8751 9.10779Z" fill="#847BBE"/>
<path d="M14.0975 14.1104C17.1616 15.6998 23.0151 19.5414 21.4257 22.6055C19.8363 25.6696 13.1326 23.467 10.0686 21.8776C7.00446 20.2883 6.52103 18.7628 8.11041 15.6987C9.69978 12.6346 11.0334 12.521 14.0975 14.1104Z" fill="#AEA7DD"/>
<path d="M9.57988 21.4031C13.0291 21.2695 20.0164 21.7144 20.15 25.1636C20.2835 28.6128 13.3677 30.013 9.91846 30.1465C6.46927 30.2801 5.29478 29.1932 5.16121 25.744C5.02764 22.2948 6.13069 21.5367 9.57988 21.4031Z" fill="#847BBE"/>
<path d="M8.87465 29.5643C11.7927 27.7205 18.0625 24.6043 19.9064 27.5224C21.7502 30.4404 16.4667 35.1175 13.5487 36.9614C10.6307 38.8052 9.06962 38.4531 7.22576 35.535C5.3819 32.617 5.95661 31.4082 8.87465 29.5643Z" fill="#AEA7DD"/>
<path d="M12.7183 36.3869C14.7654 33.6077 19.4718 28.424 22.2509 30.4712C25.0301 32.5184 21.8105 38.7972 19.7633 41.5764C17.7161 44.3555 16.1339 44.5955 13.3547 42.5483C10.5756 40.5011 10.6711 39.1661 12.7183 36.3869Z" fill="#847BBE"/>
<path d="M18.1052 41.1093C18.9375 37.7594 21.3107 31.1724 24.6606 32.0047C28.0105 32.837 27.4293 39.8692 26.597 43.2192C25.7647 46.5691 24.3937 47.3944 21.0437 46.5621C17.6938 45.7298 17.2728 44.4592 18.1052 41.1093Z" fill="#AEA7DD"/>
</svg>
